<svg width="24" xmlns="http://www.w3.org/2000/svg" height="24" id="screenshot-a4cfcaa6-1fac-57e9-b974-123b72faf6e8" viewBox="0 0 24 24" xmlns:xlink="http://www.w3.org/1999/xlink" fill="none" version="1.1"><g id="shape-a4cfcaa6-1fac-57e9-b974-123b72faf6e8"><g class="frame-container-wrapper" opacity="1"><g class="frame-container-blur"><g class="frame-container-shadows"><g fill="none"><g class="fills" id="fills-a4cfcaa6-1fac-57e9-b974-123b72faf6e8"><rect rx="0" ry="0" x="0" y="0" width="24" height="24" transform="matrix(1.000000, 0.000000, 0.000000, 1.000000, 0.000000, 0.000000)" class="frame-background"/></g><g class="frame-children"><g id="shape-5882ef75-7299-54d0-b917-4d8c10482e7d" style="opacity: 1;"><g class="fills" id="fills-5882ef75-7299-54d0-b917-4d8c10482e7d"><path d="M3.41796875,9.156494140625C3.19482421875,9.156494140625,2.990234375,8.978271484375,3.00048828125,8.7462158203125C3.060546875,7.3856201171875,3.22998046875,6.499755859375,3.7021484375,5.799072265625C3.9716796875,5.39990234375,4.31005859375,5.0494384765625,4.701171875,4.76318359375C5.75,4,7.23046875,4,10.193359375,4L13.8056640625,4C16.7685546875,4,18.2490234375,4,19.29931640625,4.76318359375C19.6875,5.0455322265625,20.02587890625,5.3958740234375,20.2978515625,5.799072265625C20.77001953125,6.499755859375,20.939453125,7.3856201171875,20.99951171875,8.7462158203125C21.009765625,8.978271484375,20.80517578125,9.156494140625,20.5810546875,9.156494140625C19.33349609375,9.156494140625,18.322265625,10.20556640625,18.322265625,11.5C18.322265625,12.79443359375,19.33349609375,13.843505859375,20.5810546875,13.843505859375C20.80517578125,13.843505859375,21.009765625,14.021728515625,20.99951171875,14.2547607421875C20.939453125,15.6143798828125,20.77001953125,16.500244140625,20.2978515625,17.2017822265625C20.02783203125,17.6007080078125,19.68994140625,17.9508056640625,19.298828125,18.23681640625C18.2490234375,19,16.7685546875,19,13.8056640625,19L10.1943359375,19C7.2314453125,19,5.7509765625,19,4.70068359375,18.23681640625C4.30908203125,17.9505615234375,3.9716796875,17.60009765625,3.7021484375,17.200927734375C3.22998046875,16.500244140625,3.060546875,15.6143798828125,3.00048828125,14.2537841796875C2.990234375,14.021728515625,3.19482421875,13.843505859375,3.41796875,13.843505859375C4.66552734375,13.843505859375,5.6767578125,12.79443359375,5.6767578125,11.5C5.6767578125,10.20556640625,4.66552734375,9.156494140625,3.41796875,9.156494140625ZM9.75048828125,13.7059326171875L14.25048828125,9.2940673828125M9.75048828125,9.2940673828125L9.76025390625,9.2940673828125M14.24072265625,13.7059326171875L14.25048828125,13.7059326171875" fill-rule="nonzero"/></g><g fill-rule="nonzero" id="strokes-d6d50f2a-5054-8034-8007-cdcc3703a839-5882ef75-7299-54d0-b917-4d8c10482e7d" class="strokes"><g class="stroke-shape"><path d="M3.41796875,9.156494140625C3.19482421875,9.156494140625,2.990234375,8.978271484375,3.00048828125,8.7462158203125C3.060546875,7.3856201171875,3.22998046875,6.499755859375,3.7021484375,5.799072265625C3.9716796875,5.39990234375,4.31005859375,5.0494384765625,4.701171875,4.76318359375C5.75,4,7.23046875,4,10.193359375,4L13.8056640625,4C16.7685546875,4,18.2490234375,4,19.29931640625,4.76318359375C19.6875,5.0455322265625,20.02587890625,5.3958740234375,20.2978515625,5.799072265625C20.77001953125,6.499755859375,20.939453125,7.3856201171875,20.99951171875,8.7462158203125C21.009765625,8.978271484375,20.80517578125,9.156494140625,20.5810546875,9.156494140625C19.33349609375,9.156494140625,18.322265625,10.20556640625,18.322265625,11.5C18.322265625,12.79443359375,19.33349609375,13.843505859375,20.5810546875,13.843505859375C20.80517578125,13.843505859375,21.009765625,14.021728515625,20.99951171875,14.2547607421875C20.939453125,15.6143798828125,20.77001953125,16.500244140625,20.2978515625,17.2017822265625C20.02783203125,17.6007080078125,19.68994140625,17.9508056640625,19.298828125,18.23681640625C18.2490234375,19,16.7685546875,19,13.8056640625,19L10.1943359375,19C7.2314453125,19,5.7509765625,19,4.70068359375,18.23681640625C4.30908203125,17.9505615234375,3.9716796875,17.60009765625,3.7021484375,17.200927734375C3.22998046875,16.500244140625,3.060546875,15.6143798828125,3.00048828125,14.2537841796875C2.990234375,14.021728515625,3.19482421875,13.843505859375,3.41796875,13.843505859375C4.66552734375,13.843505859375,5.6767578125,12.79443359375,5.6767578125,11.5C5.6767578125,10.20556640625,4.66552734375,9.156494140625,3.41796875,9.156494140625ZM9.75048828125,13.7059326171875L14.25048828125,9.2940673828125M9.75048828125,9.2940673828125L9.76025390625,9.2940673828125M14.24072265625,13.7059326171875L14.25048828125,13.7059326171875" style="fill: none; stroke-width: 1; stroke: rgb(255, 255, 255); stroke-opacity: 1;"/></g></g></g></g></g></g></g></g></g></svg>