<svg width="24" xmlns="http://www.w3.org/2000/svg" height="24" id="screenshot-810ec7df-eafb-5e47-8174-03f2ee888e47" viewBox="0 0 24 24" xmlns:xlink="http://www.w3.org/1999/xlink" fill="none" version="1.1"><g id="shape-810ec7df-eafb-5e47-8174-03f2ee888e47"><g class="frame-container-wrapper" opacity="1"><g class="frame-container-blur"><g class="frame-container-shadows"><g fill="none"><g class="fills" id="fills-810ec7df-eafb-5e47-8174-03f2ee888e47"><rect rx="0" ry="0" x="0" y="0" width="24" height="24" transform="matrix(1.000000, 0.000000, 0.000000, 1.000000, 0.000000, 0.000000)" class="frame-background"/></g><g class="frame-children"><g id="shape-95e37155-5934-545d-8fe5-72127eb1a443" style="opacity: 1;"><g class="fills" id="fills-95e37155-5934-545d-8fe5-72127eb1a443"><rect rx="2" ry="2" x="3" y="6" transform="matrix(1.000000, 0.000000, 0.000000, 1.000000, 0.000000, 0.000000)" width="18" height="15"/></g><g id="strokes-f3952342-1169-800c-8007-cdcbdc207130-95e37155-5934-545d-8fe5-72127eb1a443" class="strokes"><g class="stroke-shape"><rect rx="2" ry="2" x="3" y="6" transform="matrix(1.000000, 0.000000, 0.000000, 1.000000, 0.000000, 0.000000)" width="18" height="15" style="fill: none; stroke-width: 1; stroke: rgb(255, 255, 255); stroke-opacity: 1;"/></g></g></g><g id="shape-9beb34a6-1c29-5e6e-9f22-4b9259c4f637" style="opacity: 1;"><g class="fills" id="fills-9beb34a6-1c29-5e6e-9f22-4b9259c4f637"><path d="M5,6 h14 a2,2 0 0 1 2,2 v2 a0,0 0 0 1 0,0 h-18 a0,0 0 0 1 0,0 v-2 a2,2 0 0 1 2,-2 z" x="3" y="6" transform="matrix(1.000000, 0.000000, 0.000000, 1.000000, 0.000000, 0.000000)" width="18" height="4" style="fill: rgb(255, 255, 255); fill-opacity: 1;"/></g></g><g id="shape-b65bf96b-e30b-5149-8e0e-3304893f64c3" style="opacity: 1;"><g class="fills" id="fills-b65bf96b-e30b-5149-8e0e-3304893f64c3"><path d="M7,3L7,6"/></g><g id="strokes-f3952342-1169-800c-8007-cdcbdc20de92-b65bf96b-e30b-5149-8e0e-3304893f64c3" class="strokes"><g class="stroke-shape"><path d="M7,3L7,6" style="fill: none; stroke-width: 1; stroke: rgb(255, 255, 255); stroke-opacity: 1; stroke-linecap: round;"/></g></g></g><g id="shape-325491aa-9f39-5aa4-9db9-5f345d4ef218" style="opacity: 1;"><g class="fills" id="fills-325491aa-9f39-5aa4-9db9-5f345d4ef218"><path d="M17,3L17,6"/></g><g id="strokes-f3952342-1169-800c-8007-cdcbdc20de93-325491aa-9f39-5aa4-9db9-5f345d4ef218" class="strokes"><g class="stroke-shape"><path d="M17,3L17,6" style="fill: none; stroke-width: 1; stroke: rgb(255, 255, 255); stroke-opacity: 1; stroke-linecap: round;"/></g></g></g></g></g></g></g></g></g></svg>