<svg width="24" xmlns="http://www.w3.org/2000/svg" height="24" id="screenshot-f961847d-7412-5e42-99f2-9842ccae099b" viewBox="0 0 24 24" xmlns:xlink="http://www.w3.org/1999/xlink" fill="none" version="1.1"><g id="shape-f961847d-7412-5e42-99f2-9842ccae099b"><g class="frame-container-wrapper" opacity="1"><g class="frame-container-blur"><g class="frame-container-shadows"><g fill="none"><g class="fills" id="fills-f961847d-7412-5e42-99f2-9842ccae099b"><rect rx="0" ry="0" x="0" y="0" width="24" height="24" transform="matrix(1.000000, 0.000000, 0.000000, 1.000000, 0.000000, 0.000000)" class="frame-background"/></g><g class="frame-children"><g id="shape-a57d1d7b-1625-5b09-8fa4-8bf3ade47eb1" style="opacity: 1;"><g class="fills" id="fills-a57d1d7b-1625-5b09-8fa4-8bf3ade47eb1"><path d="M3,6L21,6L21,10L3,10L3,6Z" fill-rule="nonzero" style="fill: rgb(255, 255, 255); fill-opacity: 1;"/></g></g><g id="shape-4a15b0e2-7a16-57f2-83bc-a9b657791f92" style="opacity: 1;"><g class="fills" id="fills-4a15b0e2-7a16-57f2-83bc-a9b657791f92"><path d="M3,21.050048828125L21,21.050048828125L21,12.050048828125L3,12.050048828125L3,21.050048828125M7.5,14.35009765625C7.5,14.0740966796875,7.72412109375,13.85009765625,8,13.85009765625L10.60009765625,13.85009765625C10.8759765625,13.85009765625,11.10009765625,14.0740966796875,11.10009765625,14.35009765625L11.10009765625,15.150146484375C11.10009765625,15.426025390625,10.8759765625,15.650146484375,10.60009765625,15.650146484375L8,15.650146484375C7.72412109375,15.650146484375,7.5,15.426025390625,7.5,15.150146484375L7.5,14.35009765625M7.5,17.9500732421875C7.5,17.674072265625,7.72412109375,17.4500732421875,8,17.4500732421875L10.60009765625,17.4500732421875C10.8759765625,17.4500732421875,11.10009765625,17.674072265625,11.10009765625,17.9500732421875L11.10009765625,18.7501220703125C11.10009765625,19.0260009765625,10.8759765625,19.2501220703125,10.60009765625,19.2501220703125L8,19.2501220703125C7.72412109375,19.2501220703125,7.5,19.0260009765625,7.5,18.7501220703125L7.5,17.9500732421875M12.89990234375,14.35009765625C12.89990234375,14.0740966796875,13.1240234375,13.85009765625,13.39990234375,13.85009765625L16,13.85009765625C16.27587890625,13.85009765625,16.5,14.0740966796875,16.5,14.35009765625L16.5,15.150146484375C16.5,15.426025390625,16.27587890625,15.650146484375,16,15.650146484375L13.39990234375,15.650146484375C13.1240234375,15.650146484375,12.89990234375,15.426025390625,12.89990234375,15.150146484375L12.89990234375,14.35009765625M12.89990234375,17.9500732421875C12.89990234375,17.674072265625,13.1240234375,17.4500732421875,13.39990234375,17.4500732421875L16,17.4500732421875C16.27587890625,17.4500732421875,16.5,17.674072265625,16.5,17.9500732421875L16.5,18.7501220703125C16.5,19.0260009765625,16.27587890625,19.2501220703125,16,19.2501220703125L13.39990234375,19.2501220703125C13.1240234375,19.2501220703125,12.89990234375,19.0260009765625,12.89990234375,18.7501220703125L12.89990234375,17.9500732421875" style="fill: rgb(39, 59, 74); fill-opacity: 1;"/></g></g><g id="shape-8cecc662-b3bb-5119-ae35-92fafbf52edc" style="opacity: 1;"><g class="fills" id="fills-8cecc662-b3bb-5119-ae35-92fafbf52edc"><path d="M7,4L7,7"/></g><g id="strokes-20db9b22-60e6-8080-8007-cdcc43d8f7f1-8cecc662-b3bb-5119-ae35-92fafbf52edc" class="strokes"><g class="stroke-shape"><path d="M7,4L7,7" style="fill: none; stroke-width: 2; stroke: rgb(255, 255, 255); stroke-opacity: 1; stroke-linecap: round;"/></g></g></g><g id="shape-ae5cc296-0614-5a19-a2b0-99aad7aeecd9" style="opacity: 1;"><g class="fills" id="fills-ae5cc296-0614-5a19-a2b0-99aad7aeecd9"><path d="M16,4L16,7"/></g><g id="strokes-20db9b22-60e6-8080-8007-cdcc43d9129d-ae5cc296-0614-5a19-a2b0-99aad7aeecd9" class="strokes"><g class="stroke-shape"><path d="M16,4L16,7" style="fill: none; stroke-width: 2; stroke: rgb(255, 255, 255); stroke-opacity: 1; stroke-linecap: round;"/></g></g></g></g></g></g></g></g></g></svg>