<svg width="24" xmlns="http://www.w3.org/2000/svg" height="24" id="screenshot-2762dba0-c2fc-566d-a830-838929453c0e" viewBox="0 0 24 24" xmlns:xlink="http://www.w3.org/1999/xlink" fill="none" version="1.1"><g id="shape-2762dba0-c2fc-566d-a830-838929453c0e"><g class="frame-container-wrapper" opacity="1"><g class="frame-container-blur"><g class="frame-container-shadows"><g fill="none"><g class="fills" id="fills-2762dba0-c2fc-566d-a830-838929453c0e"><rect rx="0" ry="0" x="0" y="0" width="24" height="24" transform="matrix(1.000000, 0.000000, 0.000000, 1.000000, 0.000000, 0.000000)" class="frame-background"/></g><g class="frame-children"><g id="shape-cb0d614c-4d25-587a-9971-6bfcd7c55dec" rx="0" ry="0"><g id="shape-39470248-5cc9-5d5c-b57c-8f025d72d049" style="opacity: 1;"><g class="fills" id="fills-39470248-5cc9-5d5c-b57c-8f025d72d049"><path d="M13.5859375,7.4141845703125L6.3916015625,14.6082763671875C6.197265625,14.802978515625,6.099609375,14.9002685546875,6.03271484375,15.0185546875C5.9658203125,15.1368408203125,5.9326171875,15.2703857421875,5.86572265625,15.5374755859375L5.2021484375,18.1915283203125C5.11181640625,18.5526123046875,5.06689453125,18.733154296875,5.1669921875,18.833251953125C5.26708984375,18.933349609375,5.447265625,18.8880615234375,5.80859375,18.7978515625L5.80859375,18.7978515625L8.46240234375,18.1343994140625C8.7294921875,18.067626953125,8.86328125,18.0341796875,8.9814453125,17.9671630859375C9.099609375,17.9002685546875,9.197265625,17.8028564453125,9.3916015625,17.6082763671875L16.5859375,10.4141845703125L16.5859375,10.4141845703125C17.25244140625,9.74755859375,17.5859375,9.4141845703125,17.5859375,9C17.5859375,8.5858154296875,17.25244140625,8.25244140625,16.5859375,7.5858154296875L16.4140625,7.4141845703125C15.74755859375,6.74755859375,15.4140625,6.4141845703125,15,6.4141845703125C14.5859375,6.4141845703125,14.25244140625,6.74755859375,13.5859375,7.4141845703125Z" fill-rule="nonzero"/></g><g fill-rule="nonzero" id="strokes-b00f9eaa-b4d5-80df-8007-cdcbc9908f7c-39470248-5cc9-5d5c-b57c-8f025d72d049" class="strokes"><g class="outer-stroke-shape"><defs><mask id="outer-stroke-render-3-39470248-5cc9-5d5c-b57c-8f025d72d049-0" x="2.695895809907836" y="3.999971007939405" width="17.30425525246526" height="17.304256359541547" maskUnits="userSpaceOnUse"><use href="#stroke-shape-render-3-39470248-5cc9-5d5c-b57c-8f025d72d049-0" style="fill: none; stroke: white; stroke-width: 2;"/><use href="#stroke-shape-render-3-39470248-5cc9-5d5c-b57c-8f025d72d049-0" style="fill: black; stroke: none;"/></mask><path d="M13.5859375,7.4141845703125L6.3916015625,14.6082763671875C6.197265625,14.802978515625,6.099609375,14.9002685546875,6.03271484375,15.0185546875C5.9658203125,15.1368408203125,5.9326171875,15.2703857421875,5.86572265625,15.5374755859375L5.2021484375,18.1915283203125C5.11181640625,18.5526123046875,5.06689453125,18.733154296875,5.1669921875,18.833251953125C5.26708984375,18.933349609375,5.447265625,18.8880615234375,5.80859375,18.7978515625L5.80859375,18.7978515625L8.46240234375,18.1343994140625C8.7294921875,18.067626953125,8.86328125,18.0341796875,8.9814453125,17.9671630859375C9.099609375,17.9002685546875,9.197265625,17.8028564453125,9.3916015625,17.6082763671875L16.5859375,10.4141845703125L16.5859375,10.4141845703125C17.25244140625,9.74755859375,17.5859375,9.4141845703125,17.5859375,9C17.5859375,8.5858154296875,17.25244140625,8.25244140625,16.5859375,7.5858154296875L16.4140625,7.4141845703125C15.74755859375,6.74755859375,15.4140625,6.4141845703125,15,6.4141845703125C14.5859375,6.4141845703125,14.25244140625,6.74755859375,13.5859375,7.4141845703125Z" id="stroke-shape-render-3-39470248-5cc9-5d5c-b57c-8f025d72d049-0"/></defs><use href="#stroke-shape-render-3-39470248-5cc9-5d5c-b57c-8f025d72d049-0" mask="url(#outer-stroke-render-3-39470248-5cc9-5d5c-b57c-8f025d72d049-0)" style="fill: none; stroke-width: 2; stroke: rgb(255, 255, 255); stroke-opacity: 1;"/><use href="#stroke-shape-render-3-39470248-5cc9-5d5c-b57c-8f025d72d049-0" style="fill: none; stroke-width: 1; stroke: none; stroke-opacity: 1;"/></g></g></g><g id="shape-805aa248-6b6c-571c-b6e9-4f358e84d350" style="opacity: 1;"><g class="fills" id="fills-805aa248-6b6c-571c-b6e9-4f358e84d350"><path d="M6,15L15,6L18,9L9,18L5,19L6,15Z"/></g><g id="strokes-b00f9eaa-b4d5-80df-8007-cdcbc990d314-805aa248-6b6c-571c-b6e9-4f358e84d350" class="strokes"><g class="outer-stroke-shape"><defs><mask id="outer-stroke-render-4-805aa248-6b6c-571c-b6e9-4f358e84d350-0" x="2.585786437626905" y="3.585786437626905" width="17.82842712474619" height="17.82842712474619" maskUnits="userSpaceOnUse"><use href="#stroke-shape-render-4-805aa248-6b6c-571c-b6e9-4f358e84d350-0" style="fill: none; stroke: white; stroke-width: 2;"/><use href="#stroke-shape-render-4-805aa248-6b6c-571c-b6e9-4f358e84d350-0" style="fill: black; stroke: none;"/></mask><path d="M6,15L15,6L18,9L9,18L5,19L6,15Z" id="stroke-shape-render-4-805aa248-6b6c-571c-b6e9-4f358e84d350-0"/></defs><use href="#stroke-shape-render-4-805aa248-6b6c-571c-b6e9-4f358e84d350-0" mask="url(#outer-stroke-render-4-805aa248-6b6c-571c-b6e9-4f358e84d350-0)" style="fill: none; stroke-width: 2; stroke: rgb(255, 255, 255); stroke-opacity: 1;"/><use href="#stroke-shape-render-4-805aa248-6b6c-571c-b6e9-4f358e84d350-0" style="fill: none; stroke-width: 1; stroke: none; stroke-opacity: 1;"/></g></g></g></g><g id="shape-6cafcd9b-c6c5-56d6-a00e-2426ceda295d" style="opacity: 1;"><g class="fills" id="fills-6cafcd9b-c6c5-56d6-a00e-2426ceda295d"><path d="M12.5,7.5L15.5,5.5L18.5,8.5L16.5,11.5L12.5,7.5Z" fill-rule="nonzero" style="fill: rgb(255, 255, 255); fill-opacity: 1;"/></g></g></g></g></g></g></g></g></svg>