<svg width="24" xmlns="http://www.w3.org/2000/svg" height="24" id="screenshot-a47a6e19-919e-57c9-be3a-397c43c483f5" viewBox="0 0 24 24" xmlns:xlink="http://www.w3.org/1999/xlink" fill="none" version="1.1"><g id="shape-a47a6e19-919e-57c9-be3a-397c43c483f5"><g class="frame-container-wrapper" opacity="1"><g class="frame-container-blur"><g class="frame-container-shadows"><g fill="none"><g class="fills" id="fills-a47a6e19-919e-57c9-be3a-397c43c483f5"><rect rx="0" ry="0" x="0" y="0" width="24" height="24" transform="matrix(1.000000, 0.000000, 0.000000, 1.000000, 0.000000, 0.000000)" class="frame-background"/></g><g class="frame-children"><g id="shape-d89eaa3e-0a96-55f1-b490-4aada2c7d36f" style="opacity: 1;"><g class="fills" id="fills-d89eaa3e-0a96-55f1-b490-4aada2c7d36f"><path d="M20,11L20,3M20,3L12,3M20,3L10,13"/></g><g id="strokes-93063a95-1598-80d9-8007-cdcc1c312b43-d89eaa3e-0a96-55f1-b490-4aada2c7d36f" class="strokes"><g class="stroke-shape"><defs><marker refX="3" fill-opacity="1" orient="auto-start-reverse" id="marker-render-2-round" viewBox="0 0 6 6" fill="#ffffff" refY="3" markerWidth="6" markerHeight="6"><path d="M 3 2.5 A 0.5 0.5 0 0 1 3 3.5 "/></marker></defs><path d="M20,11L20,3M20,3L12,3M20,3L10,13" style="fill: none; stroke-width: 1; stroke: rgb(255, 255, 255); stroke-opacity: 1; marker-end: url(&quot;#marker-render-2-round&quot;);"/></g></g></g><g id="shape-3b7e9f79-c588-5206-b5a7-25ae0f07ad4c" style="opacity: 1;"><g class="fills" id="fills-3b7e9f79-c588-5206-b5a7-25ae0f07ad4c"><path d="M18,14.625L18,19L4,19L4,5L8.375,5"/></g><g id="strokes-93063a95-1598-80d9-8007-cdcc1c314660-3b7e9f79-c588-5206-b5a7-25ae0f07ad4c" class="strokes"><g class="stroke-shape"><path d="M18,14.625L18,19L4,19L4,5L8.375,5" style="fill: none; stroke-width: 1; stroke: rgb(255, 255, 255); stroke-opacity: 1; stroke-linecap: round;"/></g></g></g></g></g></g></g></g></g></svg>