<svg width="24" xmlns="http://www.w3.org/2000/svg" height="24" id="screenshot-0f53e6ec-2e05-526d-bdfd-ec7566f5ff9e" viewBox="0 0 24 24" xmlns:xlink="http://www.w3.org/1999/xlink" fill="none" version="1.1"><g id="shape-0f53e6ec-2e05-526d-bdfd-ec7566f5ff9e"><g class="frame-container-wrapper" opacity="1"><g class="frame-container-blur"><g class="frame-container-shadows"><g fill="none"><g class="fills" id="fills-0f53e6ec-2e05-526d-bdfd-ec7566f5ff9e"><rect rx="0" ry="0" x="0" y="0" width="24" height="24" transform="matrix(1.000000, 0.000000, 0.000000, 1.000000, 0.000000, 0.000000)" class="frame-background"/></g><g class="frame-children"><g id="shape-7b601622-c2f3-55a2-8b62-36e7205b74ac" style="opacity: 1;"><g class="fills" id="fills-7b601622-c2f3-55a2-8b62-36e7205b74ac"><path d="M19,11C19,16.865966796875,12,20,12,20C12,20,5,16.865966796875,5,11C5,7.134033203125,8.1337890625,4,12,4C15.8662109375,4,19,7.134033203125,19,11M12,8C10.34423828125,8,9,9.34423828125,9,11C9,12.65576171875,10.34423828125,14,12,14C13.65576171875,14,15,12.65576171875,15,11C15,9.34423828125,13.65576171875,8,12,8" style="fill: rgb(255, 255, 255); fill-opacity: 1;"/></g></g></g></g></g></g></g></g></svg>