<svg width="24" xmlns="http://www.w3.org/2000/svg" height="24" id="screenshot-814c62ae-2646-532f-a616-21b560ae4a03" viewBox="0 0 24 24" xmlns:xlink="http://www.w3.org/1999/xlink" fill="none" version="1.1"><g id="shape-814c62ae-2646-532f-a616-21b560ae4a03"><g class="frame-container-wrapper" opacity="1"><g class="frame-container-blur"><g class="frame-container-shadows"><g fill="none"><g class="fills" id="fills-814c62ae-2646-532f-a616-21b560ae4a03"><rect rx="0" ry="0" x="0" y="0" width="24" height="24" transform="matrix(1.000000, 0.000000, 0.000000, 1.000000, 0.000000, 0.000000)" class="frame-background"/></g><g class="frame-children"><g id="shape-5394d80e-f750-5cef-9e27-6531f38bb01a" style="opacity: 1;"><g class="fills" id="fills-5394d80e-f750-5cef-9e27-6531f38bb01a"><path d="M6,7L2,12M2,12L6,17M2,12L11,12"/></g><g id="strokes-030a2e94-31d0-8034-8007-cdcc15fc5860-5394d80e-f750-5cef-9e27-6531f38bb01a" class="strokes"><g class="stroke-shape"><defs><marker refX="3" fill-opacity="1" orient="auto-start-reverse" id="marker-render-2-round" viewBox="0 0 6 6" fill="#ffffff" refY="3" markerWidth="6" markerHeight="6"><path d="M 3 2.5 A 0.5 0.5 0 0 1 3 3.5 "/></marker></defs><path d="M6,7L2,12M2,12L6,17M2,12L11,12" style="fill: none; stroke-width: 1; stroke: rgb(255, 255, 255); stroke-opacity: 1; marker-end: url(&quot;#marker-render-2-round&quot;);"/></g></g></g><g id="shape-47034069-c9da-510c-8db7-cab11e00a92a" style="opacity: 1;"><g class="fills" id="fills-47034069-c9da-510c-8db7-cab11e00a92a"><path d="M10,8.1319580078125L10,4L22,2L22,22L10,20L10,16.06591796875"/></g><g id="strokes-030a2e94-31d0-8034-8007-cdcc15fcec73-47034069-c9da-510c-8db7-cab11e00a92a" class="strokes"><g class="stroke-shape"><path d="M10,8.1319580078125L10,4L22,2L22,22L10,20L10,16.06591796875" style="fill: none; stroke-width: 1; stroke: rgb(255, 255, 255); stroke-opacity: 1;"/></g></g></g></g></g></g></g></g></g></svg>