<svg width="24" xmlns="http://www.w3.org/2000/svg" height="24" id="screenshot-0a017344-9b53-564a-aa6e-167a822a2df0" viewBox="0 0 24 24" xmlns:xlink="http://www.w3.org/1999/xlink" fill="none" version="1.1"><g id="shape-0a017344-9b53-564a-aa6e-167a822a2df0"><g class="frame-container-wrapper" opacity="1"><g class="frame-container-blur"><g class="frame-container-shadows"><g fill="none"><g class="fills" id="fills-0a017344-9b53-564a-aa6e-167a822a2df0"><rect rx="0" ry="0" x="0" y="0" width="24" height="24" transform="matrix(1.000000, 0.000000, 0.000000, 1.000000, 0.000000, 0.000000)" class="frame-background"/></g><g class="frame-children"><g id="shape-4dd1db80-5def-5678-a3e1-155315142bdd" style="opacity: 1;"><g class="fills" id="fills-4dd1db80-5def-5678-a3e1-155315142bdd"><path d="M10.14404296875,6.6275634765625C10.9306640625,4.66650390625,11.32373046875,3.68603515625,12,3.68603515625C12.67626953125,3.68603515625,13.06982421875,4.66650390625,13.8564453125,6.6275634765625L13.89306640625,6.7188720703125C14.33740234375,7.82666015625,14.5595703125,8.380615234375,15.01220703125,8.71728515625C15.46533203125,9.0540771484375,16.0595703125,9.1072998046875,17.24853515625,9.2137451171875L17.46337890625,9.2330322265625C19.4091796875,9.4072265625,20.38232421875,9.494384765625,20.59033203125,10.1134033203125C20.798828125,10.7322998046875,20.076171875,11.3896484375,18.630859375,12.704345703125L18.14892578125,13.1431884765625C17.41748046875,13.8087158203125,17.0517578125,14.1414794921875,16.880859375,14.5775146484375C16.84912109375,14.658935546875,16.82275390625,14.7423095703125,16.8017578125,14.8270263671875C16.68994140625,15.28173828125,16.796875,15.7645263671875,17.01123046875,16.72998046875L17.07763671875,17.030517578125C17.4716796875,18.8048095703125,17.66845703125,19.6920166015625,17.32470703125,20.0745849609375C17.1962890625,20.2176513671875,17.029296875,20.320556640625,16.84375,20.3712158203125C16.34765625,20.506591796875,15.64306640625,19.9324951171875,14.234375,18.784423828125C13.30908203125,18.030517578125,12.8466796875,17.653564453125,12.3154296875,17.56884765625C12.1064453125,17.535400390625,11.8935546875,17.535400390625,11.6845703125,17.56884765625C11.15380859375,17.653564453125,10.69091796875,18.030517578125,9.76611328125,18.784423828125C8.35693359375,19.9324951171875,7.65234375,20.506591796875,7.15625,20.3712158203125C6.970703125,20.320556640625,6.8037109375,20.2176513671875,6.67529296875,20.0745849609375C6.33203125,19.6920166015625,6.52880859375,18.8048095703125,6.92236328125,17.030517578125L6.9892578125,16.72998046875C7.203125,15.7645263671875,7.310546875,15.28173828125,7.1982421875,14.8270263671875C7.17724609375,14.7423095703125,7.15087890625,14.658935546875,7.119140625,14.5775146484375C6.94873046875,14.1414794921875,6.5830078125,13.8087158203125,5.8515625,13.1431884765625L5.369140625,12.704345703125C3.92431640625,11.3896484375,3.20166015625,10.7322998046875,3.40966796875,10.1134033203125C3.61767578125,9.494384765625,4.5908203125,9.4072265625,6.53662109375,9.2330322265625L6.75146484375,9.2137451171875C7.9404296875,9.1072998046875,8.53515625,9.0540771484375,8.98779296875,8.71728515625C9.4404296875,8.380615234375,9.66259765625,7.82666015625,10.107421875,6.7188720703125L10.14404296875,6.6275634765625Z" fill-rule="nonzero"/></g><g fill-rule="nonzero" id="strokes-7c176c26-6213-8086-8007-cdcc294f406d-4dd1db80-5def-5678-a3e1-155315142bdd" class="strokes"><g class="stroke-shape"><path d="M10.14404296875,6.6275634765625C10.9306640625,4.66650390625,11.32373046875,3.68603515625,12,3.68603515625C12.67626953125,3.68603515625,13.06982421875,4.66650390625,13.8564453125,6.6275634765625L13.89306640625,6.7188720703125C14.33740234375,7.82666015625,14.5595703125,8.380615234375,15.01220703125,8.71728515625C15.46533203125,9.0540771484375,16.0595703125,9.1072998046875,17.24853515625,9.2137451171875L17.46337890625,9.2330322265625C19.4091796875,9.4072265625,20.38232421875,9.494384765625,20.59033203125,10.1134033203125C20.798828125,10.7322998046875,20.076171875,11.3896484375,18.630859375,12.704345703125L18.14892578125,13.1431884765625C17.41748046875,13.8087158203125,17.0517578125,14.1414794921875,16.880859375,14.5775146484375C16.84912109375,14.658935546875,16.82275390625,14.7423095703125,16.8017578125,14.8270263671875C16.68994140625,15.28173828125,16.796875,15.7645263671875,17.01123046875,16.72998046875L17.07763671875,17.030517578125C17.4716796875,18.8048095703125,17.66845703125,19.6920166015625,17.32470703125,20.0745849609375C17.1962890625,20.2176513671875,17.029296875,20.320556640625,16.84375,20.3712158203125C16.34765625,20.506591796875,15.64306640625,19.9324951171875,14.234375,18.784423828125C13.30908203125,18.030517578125,12.8466796875,17.653564453125,12.3154296875,17.56884765625C12.1064453125,17.535400390625,11.8935546875,17.535400390625,11.6845703125,17.56884765625C11.15380859375,17.653564453125,10.69091796875,18.030517578125,9.76611328125,18.784423828125C8.35693359375,19.9324951171875,7.65234375,20.506591796875,7.15625,20.3712158203125C6.970703125,20.320556640625,6.8037109375,20.2176513671875,6.67529296875,20.0745849609375C6.33203125,19.6920166015625,6.52880859375,18.8048095703125,6.92236328125,17.030517578125L6.9892578125,16.72998046875C7.203125,15.7645263671875,7.310546875,15.28173828125,7.1982421875,14.8270263671875C7.17724609375,14.7423095703125,7.15087890625,14.658935546875,7.119140625,14.5775146484375C6.94873046875,14.1414794921875,6.5830078125,13.8087158203125,5.8515625,13.1431884765625L5.369140625,12.704345703125C3.92431640625,11.3896484375,3.20166015625,10.7322998046875,3.40966796875,10.1134033203125C3.61767578125,9.494384765625,4.5908203125,9.4072265625,6.53662109375,9.2330322265625L6.75146484375,9.2137451171875C7.9404296875,9.1072998046875,8.53515625,9.0540771484375,8.98779296875,8.71728515625C9.4404296875,8.380615234375,9.66259765625,7.82666015625,10.107421875,6.7188720703125L10.14404296875,6.6275634765625Z" style="fill: none; stroke-width: 1; stroke: rgb(255, 255, 255); stroke-opacity: 1;"/></g></g></g></g></g></g></g></g></g></svg>